<mxfile host="app.diagrams.net" agent="Mozilla/5.0 (Windows NT 10.0; Win64; x64) AppleWebKit/537.36 (KHTML, like Gecko) Chrome/130.0.0.0 Safari/537.36 Edg/130.0.0.0" version="24.8.2">
  <diagram name="Page-1" id="jweimoSPKfAo6tUn9AmL">
    <mxGraphModel dx="1666" dy="749" grid="1" gridSize="10" guides="1" tooltips="1" connect="1" arrows="1" fold="1" page="1" pageScale="1" pageWidth="850" pageHeight="1100" math="0" shadow="0">
      <root>
        <mxCell id="0" />
        <mxCell id="1" parent="0" />
        <mxCell id="zN9mEQPc6Sny1_eNRjfh-1" value="SIMSTATS.f90" style="rounded=1;whiteSpace=wrap;html=1;fillColor=#FFCCCC;" vertex="1" parent="1">
          <mxGeometry x="377" width="157" height="40" as="geometry" />
        </mxCell>
        <mxCell id="zN9mEQPc6Sny1_eNRjfh-2" value="&lt;div&gt;&lt;font style=&quot;font-size: 9px;&quot;&gt;Dependencies:&lt;/font&gt;&lt;/div&gt;&lt;div&gt;&lt;font size=&quot;1&quot; style=&quot;&quot;&gt;&lt;div style=&quot;&quot;&gt;Modules\simulation_statistics\SIMSTATS_config.f90: init_metricsout_files&lt;/div&gt;&lt;div style=&quot;&quot;&gt;Modules\simulation_statistics\SIMSTATS.F90: calc_stats&lt;/div&gt;&lt;/font&gt;&lt;/div&gt;&lt;div&gt;&lt;br&gt;&lt;/div&gt;" style="rounded=0;whiteSpace=wrap;html=1;align=left;" vertex="1" parent="1">
          <mxGeometry y="10" width="330" height="60" as="geometry" />
        </mxCell>
        <mxCell id="zN9mEQPc6Sny1_eNRjfh-5" value="" style="edgeStyle=orthogonalEdgeStyle;rounded=0;orthogonalLoop=1;jettySize=auto;html=1;" edge="1" parent="1" source="zN9mEQPc6Sny1_eNRjfh-3" target="zN9mEQPc6Sny1_eNRjfh-4">
          <mxGeometry relative="1" as="geometry" />
        </mxCell>
        <mxCell id="zN9mEQPc6Sny1_eNRjfh-3" value="stats_write(fls)" style="rounded=1;whiteSpace=wrap;html=1;fontStyle=1" vertex="1" parent="1">
          <mxGeometry x="350" y="110" width="191.49" height="30" as="geometry" />
        </mxCell>
        <mxCell id="zN9mEQPc6Sny1_eNRjfh-7" value="" style="edgeStyle=orthogonalEdgeStyle;rounded=0;orthogonalLoop=1;jettySize=auto;html=1;" edge="1" parent="1" source="zN9mEQPc6Sny1_eNRjfh-4" target="zN9mEQPc6Sny1_eNRjfh-6">
          <mxGeometry relative="1" as="geometry" />
        </mxCell>
        <mxCell id="zN9mEQPc6Sny1_eNRjfh-4" value="&lt;span style=&quot;font-weight: normal;&quot;&gt;&lt;font style=&quot;font-size: 9px;&quot;&gt;if not the head node of if AUTOCALIBRATIONFLAG is not active, or the number of calibration points is zero&lt;/font&gt;&lt;/span&gt;" style="rhombus;whiteSpace=wrap;html=1;rounded=1;fontStyle=1;fillColor=#F19C99;" vertex="1" parent="1">
          <mxGeometry x="343.61" y="170" width="204.26" height="100" as="geometry" />
        </mxCell>
        <mxCell id="zN9mEQPc6Sny1_eNRjfh-6" value="Abort Function" style="whiteSpace=wrap;html=1;rounded=1;fontStyle=1;" vertex="1" parent="1">
          <mxGeometry x="590" y="205" width="70" height="30" as="geometry" />
        </mxCell>
        <mxCell id="zN9mEQPc6Sny1_eNRjfh-11" value="" style="edgeStyle=orthogonalEdgeStyle;rounded=0;orthogonalLoop=1;jettySize=auto;html=1;" edge="1" parent="1" source="zN9mEQPc6Sny1_eNRjfh-8" target="zN9mEQPc6Sny1_eNRjfh-10">
          <mxGeometry relative="1" as="geometry" />
        </mxCell>
        <mxCell id="zN9mEQPc6Sny1_eNRjfh-15" style="edgeStyle=orthogonalEdgeStyle;rounded=0;orthogonalLoop=1;jettySize=auto;html=1;" edge="1" parent="1" source="zN9mEQPc6Sny1_eNRjfh-8" target="zN9mEQPc6Sny1_eNRjfh-12">
          <mxGeometry relative="1" as="geometry" />
        </mxCell>
        <mxCell id="zN9mEQPc6Sny1_eNRjfh-8" value="&lt;span style=&quot;font-weight: 400;&quot;&gt;&lt;font style=&quot;font-size: 12px;&quot;&gt;if (.not. allocated(mtsfl%fl))&lt;/font&gt;&lt;/span&gt;" style="rhombus;whiteSpace=wrap;html=1;rounded=1;fontStyle=1;fillColor=#F19C99;" vertex="1" parent="1">
          <mxGeometry x="355.74" y="300" width="180" height="80" as="geometry" />
        </mxCell>
        <mxCell id="zN9mEQPc6Sny1_eNRjfh-9" style="edgeStyle=orthogonalEdgeStyle;rounded=0;orthogonalLoop=1;jettySize=auto;html=1;entryX=0.5;entryY=0;entryDx=0;entryDy=0;" edge="1" parent="1" source="zN9mEQPc6Sny1_eNRjfh-4" target="zN9mEQPc6Sny1_eNRjfh-8">
          <mxGeometry relative="1" as="geometry" />
        </mxCell>
        <mxCell id="zN9mEQPc6Sny1_eNRjfh-10" value="&lt;span style=&quot;font-weight: normal;&quot;&gt;call init_metricsout_files()&lt;/span&gt;" style="whiteSpace=wrap;html=1;fillColor=#FFFFFF;rounded=1;fontStyle=1;" vertex="1" parent="1">
          <mxGeometry x="570" y="320" width="153.79" height="40" as="geometry" />
        </mxCell>
        <mxCell id="zN9mEQPc6Sny1_eNRjfh-14" style="edgeStyle=orthogonalEdgeStyle;rounded=0;orthogonalLoop=1;jettySize=auto;html=1;entryX=0;entryY=0.5;entryDx=0;entryDy=0;" edge="1" parent="1" source="zN9mEQPc6Sny1_eNRjfh-12" target="zN9mEQPc6Sny1_eNRjfh-13">
          <mxGeometry relative="1" as="geometry" />
        </mxCell>
        <mxCell id="zN9mEQPc6Sny1_eNRjfh-20" style="edgeStyle=orthogonalEdgeStyle;rounded=0;orthogonalLoop=1;jettySize=auto;html=1;" edge="1" parent="1" source="zN9mEQPc6Sny1_eNRjfh-12" target="zN9mEQPc6Sny1_eNRjfh-16">
          <mxGeometry relative="1" as="geometry" />
        </mxCell>
        <mxCell id="zN9mEQPc6Sny1_eNRjfh-12" value="&lt;span style=&quot;font-weight: 400;&quot;&gt;If pre-emption is active&lt;/span&gt;" style="rhombus;whiteSpace=wrap;html=1;rounded=1;fontStyle=1;fillColor=#F19C99;" vertex="1" parent="1">
          <mxGeometry x="355.74" y="410" width="180" height="60" as="geometry" />
        </mxCell>
        <mxCell id="zN9mEQPc6Sny1_eNRjfh-13" value="&lt;span style=&quot;font-weight: 400;&quot;&gt;Write intermediate metrics into file name from mtsfl%fl(mtsk%fo)%fn&lt;/span&gt;" style="whiteSpace=wrap;html=1;fillColor=#FFFFFF;rounded=1;fontStyle=1;" vertex="1" parent="1">
          <mxGeometry x="561.9" y="410" width="170" height="60" as="geometry" />
        </mxCell>
        <mxCell id="zN9mEQPc6Sny1_eNRjfh-19" style="edgeStyle=orthogonalEdgeStyle;rounded=0;orthogonalLoop=1;jettySize=auto;html=1;entryX=0;entryY=0.5;entryDx=0;entryDy=0;" edge="1" parent="1" source="zN9mEQPc6Sny1_eNRjfh-16" target="zN9mEQPc6Sny1_eNRjfh-18">
          <mxGeometry relative="1" as="geometry" />
        </mxCell>
        <mxCell id="zN9mEQPc6Sny1_eNRjfh-23" style="edgeStyle=orthogonalEdgeStyle;rounded=0;orthogonalLoop=1;jettySize=auto;html=1;entryX=0.5;entryY=0;entryDx=0;entryDy=0;" edge="1" parent="1" source="zN9mEQPc6Sny1_eNRjfh-16" target="zN9mEQPc6Sny1_eNRjfh-22">
          <mxGeometry relative="1" as="geometry" />
        </mxCell>
        <mxCell id="zN9mEQPc6Sny1_eNRjfh-16" value="&lt;span style=&quot;font-weight: 400;&quot;&gt;if (METRICSSPINUP &amp;gt; ncal)&amp;nbsp;&lt;/span&gt;" style="rhombus;whiteSpace=wrap;html=1;rounded=1;fontStyle=1;fillColor=#F19C99;" vertex="1" parent="1">
          <mxGeometry x="355.75" y="510" width="180" height="70" as="geometry" />
        </mxCell>
        <mxCell id="zN9mEQPc6Sny1_eNRjfh-18" value="Abort Function" style="whiteSpace=wrap;html=1;rounded=1;fontStyle=1;" vertex="1" parent="1">
          <mxGeometry x="570" y="530" width="70" height="30" as="geometry" />
        </mxCell>
        <mxCell id="zN9mEQPc6Sny1_eNRjfh-26" style="edgeStyle=orthogonalEdgeStyle;rounded=0;orthogonalLoop=1;jettySize=auto;html=1;entryX=0.5;entryY=0;entryDx=0;entryDy=0;" edge="1" parent="1" source="zN9mEQPc6Sny1_eNRjfh-22" target="zN9mEQPc6Sny1_eNRjfh-24">
          <mxGeometry relative="1" as="geometry" />
        </mxCell>
        <mxCell id="zN9mEQPc6Sny1_eNRjfh-22" value="&lt;div&gt;&lt;span style=&quot;font-weight: 400;&quot;&gt;-&amp;nbsp;&lt;/span&gt;&lt;span style=&quot;background-color: initial; font-weight: 400;&quot;&gt;call calc_stats&lt;/span&gt;&lt;/div&gt;&lt;span style=&quot;font-weight: 400;&quot;&gt;- Allocates the &lt;/span&gt;fkge &lt;span style=&quot;font-weight: 400;&quot;&gt;array to store&amp;nbsp; &amp;nbsp; &amp;nbsp; Kling-Gupta Efficiency (KGE)&amp;nbsp; &amp;nbsp; &amp;nbsp; &amp;nbsp; &amp;nbsp; values for each calibration point&lt;/span&gt;" style="whiteSpace=wrap;html=1;fillColor=#FFFFFF;rounded=1;fontStyle=1;align=left;" vertex="1" parent="1">
          <mxGeometry x="350.75" y="610" width="190" height="80" as="geometry" />
        </mxCell>
        <mxCell id="zN9mEQPc6Sny1_eNRjfh-28" style="edgeStyle=orthogonalEdgeStyle;rounded=0;orthogonalLoop=1;jettySize=auto;html=1;" edge="1" parent="1" source="zN9mEQPc6Sny1_eNRjfh-24" target="zN9mEQPc6Sny1_eNRjfh-27">
          <mxGeometry relative="1" as="geometry">
            <Array as="points">
              <mxPoint x="446" y="800" />
              <mxPoint x="446" y="800" />
            </Array>
          </mxGeometry>
        </mxCell>
        <mxCell id="zN9mEQPc6Sny1_eNRjfh-24" value="&lt;div&gt;&lt;span style=&quot;font-weight: 400;&quot;&gt;st_drms = calc_drms_value(METRICSSPINUP, ncal, qobs, qsim)&lt;/span&gt;&lt;/div&gt;&lt;div&gt;&lt;span style=&quot;font-weight: 400;&quot;&gt;st_abserr = calc_abserr_value(METRICSSPINUP, ncal, qobs, qsim)&lt;/span&gt;&lt;/div&gt;" style="whiteSpace=wrap;html=1;fillColor=#FFFFFF;rounded=1;fontStyle=1;align=left;" vertex="1" parent="1">
          <mxGeometry x="264.59" y="720" width="362.3" height="50" as="geometry" />
        </mxCell>
        <mxCell id="zN9mEQPc6Sny1_eNRjfh-30" style="edgeStyle=orthogonalEdgeStyle;rounded=0;orthogonalLoop=1;jettySize=auto;html=1;" edge="1" parent="1" source="zN9mEQPc6Sny1_eNRjfh-27" target="zN9mEQPc6Sny1_eNRjfh-29">
          <mxGeometry relative="1" as="geometry" />
        </mxCell>
        <mxCell id="zN9mEQPc6Sny1_eNRjfh-27" value="&lt;span style=&quot;font-weight: 400;&quot;&gt;Monte Carlo Analysis:&amp;nbsp;&lt;/span&gt;&lt;div&gt;&lt;span style=&quot;font-weight: 400;&quot;&gt;Appends multiple simulations&#39; results into a file.&amp;nbsp;&lt;/span&gt;&lt;span style=&quot;background-color: initial; font-weight: 400;&quot;&gt;Outputs summary files containing:&lt;/span&gt;&lt;/div&gt;&lt;div&gt;&lt;span style=&quot;font-weight: 400;&quot;&gt;Bias, NSE, MAE, RMSE, KGE, and other metrics.&lt;/span&gt;&lt;/div&gt;" style="whiteSpace=wrap;html=1;fillColor=#FFFFFF;rounded=1;fontStyle=1;align=center;" vertex="1" parent="1">
          <mxGeometry x="337.99" y="800" width="232.01" height="80" as="geometry" />
        </mxCell>
        <mxCell id="zN9mEQPc6Sny1_eNRjfh-32" style="edgeStyle=orthogonalEdgeStyle;rounded=0;orthogonalLoop=1;jettySize=auto;html=1;" edge="1" parent="1" source="zN9mEQPc6Sny1_eNRjfh-29" target="zN9mEQPc6Sny1_eNRjfh-31">
          <mxGeometry relative="1" as="geometry" />
        </mxCell>
        <mxCell id="zN9mEQPc6Sny1_eNRjfh-29" value="&lt;span style=&quot;font-weight: 400;&quot;&gt;Write Nash-Sutcliffe coefficient of daily streamflow values&lt;/span&gt;" style="whiteSpace=wrap;html=1;fillColor=#FFFFFF;rounded=1;fontStyle=1;align=center;" vertex="1" parent="1">
          <mxGeometry x="337.99" y="900" width="232.01" height="50" as="geometry" />
        </mxCell>
        <mxCell id="zN9mEQPc6Sny1_eNRjfh-35" style="edgeStyle=orthogonalEdgeStyle;rounded=0;orthogonalLoop=1;jettySize=auto;html=1;entryX=0.5;entryY=0;entryDx=0;entryDy=0;" edge="1" parent="1" source="zN9mEQPc6Sny1_eNRjfh-31" target="zN9mEQPc6Sny1_eNRjfh-33">
          <mxGeometry relative="1" as="geometry" />
        </mxCell>
        <mxCell id="zN9mEQPc6Sny1_eNRjfh-31" value="&lt;span style=&quot;font-weight: 400;&quot;&gt;Write Nash-Sutcliffe coefficient of weekly streamflow values&lt;/span&gt;" style="whiteSpace=wrap;html=1;fillColor=#FFFFFF;rounded=1;fontStyle=1;align=center;" vertex="1" parent="1">
          <mxGeometry x="337.99" y="980" width="232.01" height="40" as="geometry" />
        </mxCell>
        <mxCell id="zN9mEQPc6Sny1_eNRjfh-36" style="edgeStyle=orthogonalEdgeStyle;rounded=0;orthogonalLoop=1;jettySize=auto;html=1;entryX=0.5;entryY=0;entryDx=0;entryDy=0;" edge="1" parent="1" source="zN9mEQPc6Sny1_eNRjfh-33" target="zN9mEQPc6Sny1_eNRjfh-34">
          <mxGeometry relative="1" as="geometry" />
        </mxCell>
        <mxCell id="zN9mEQPc6Sny1_eNRjfh-33" value="&lt;span style=&quot;font-weight: 400;&quot;&gt;Write daily root mean squared error&lt;/span&gt;" style="whiteSpace=wrap;html=1;fillColor=#FFFFFF;rounded=1;fontStyle=1;align=center;" vertex="1" parent="1">
          <mxGeometry x="347.99" y="1050" width="212.01" height="40" as="geometry" />
        </mxCell>
        <mxCell id="zN9mEQPc6Sny1_eNRjfh-38" style="edgeStyle=orthogonalEdgeStyle;rounded=0;orthogonalLoop=1;jettySize=auto;html=1;" edge="1" parent="1" source="zN9mEQPc6Sny1_eNRjfh-34" target="zN9mEQPc6Sny1_eNRjfh-37">
          <mxGeometry relative="1" as="geometry" />
        </mxCell>
        <mxCell id="zN9mEQPc6Sny1_eNRjfh-34" value="&lt;span style=&quot;font-weight: 400;&quot;&gt;Write mean absolute error&lt;/span&gt;" style="whiteSpace=wrap;html=1;fillColor=#FFFFFF;rounded=1;fontStyle=1;align=center;" vertex="1" parent="1">
          <mxGeometry x="374" y="1120" width="160" height="40" as="geometry" />
        </mxCell>
        <mxCell id="zN9mEQPc6Sny1_eNRjfh-40" style="edgeStyle=orthogonalEdgeStyle;rounded=0;orthogonalLoop=1;jettySize=auto;html=1;entryX=0.5;entryY=0;entryDx=0;entryDy=0;" edge="1" parent="1" source="zN9mEQPc6Sny1_eNRjfh-37" target="zN9mEQPc6Sny1_eNRjfh-39">
          <mxGeometry relative="1" as="geometry" />
        </mxCell>
        <mxCell id="zN9mEQPc6Sny1_eNRjfh-37" value="&lt;span style=&quot;font-weight: 400;&quot;&gt;Write the summary of the metrics to file&lt;/span&gt;" style="whiteSpace=wrap;html=1;fillColor=#FFFFFF;rounded=1;fontStyle=1;align=center;" vertex="1" parent="1">
          <mxGeometry x="373.99" y="1190" width="160" height="40" as="geometry" />
        </mxCell>
        <mxCell id="zN9mEQPc6Sny1_eNRjfh-39" value="end subroutine" style="whiteSpace=wrap;html=1;fillColor=#FFFFFF;rounded=1;fontStyle=1;" vertex="1" parent="1">
          <mxGeometry x="397.41999999999996" y="1260" width="113.13" height="40" as="geometry" />
        </mxCell>
      </root>
    </mxGraphModel>
  </diagram>
</mxfile>
